HIERARCHY
ROOT Hips
{
	OFFSET 0.000000 0.000000 0.000000
	CHANNELS 6 Xposition Yposition Zposition Zrotation Yrotation Xrotation 
	JOINT LHipJoint
	{
		OFFSET 0.000000 0.000000 0.000000
		CHANNELS 3 Zrotation Yrotation Xrotation
		JOINT LeftUpLeg
		{
			OFFSET 1.363060 -1.794630 0.839290
			CHANNELS 3 Zrotation Yrotation Xrotation
			JOINT LeftLeg
			{
				OFFSET 2.448110 -6.726130 0.000000
				CHANNELS 3 Zrotation Yrotation Xrotation
				JOINT LeftFoot
				{
					OFFSET 2.562200 -7.039590 0.000000
					CHANNELS 3 Zrotation Yrotation Xrotation
					JOINT LeftToeBase
					{
						OFFSET 0.157640 -0.433110 2.322550
						CHANNELS 3 Zrotation Yrotation Xrotation
						End Site
						{
							OFFSET 0.000000 0.000000 0.000000
						}
					}
				}
			}
		}
	}
	JOINT RHipJoint
	{
		OFFSET 0.000000 0.000000 0.000000
		CHANNELS 3 Zrotation Yrotation Xrotation
		JOINT RightUpLeg
		{
			OFFSET -1.305520 -1.794630 0.839290
			CHANNELS 3 Zrotation Yrotation Xrotation
			JOINT RightLeg
			{
				OFFSET -2.542530 -6.985550 0.000000
				CHANNELS 3 Zrotation Yrotation Xrotation
				JOINT RightFoot
				{
					OFFSET -2.568260 -7.056230 0.000000
					CHANNELS 3 Zrotation Yrotation Xrotation
					JOINT RightToeBase
					{
						OFFSET -0.164730 -0.452590 2.363150
						CHANNELS 3 Zrotation Yrotation Xrotation
						End Site
						{
							OFFSET 0.000000 0.000000 0.000000
						}
					}
				}
			}
		}
	}
	JOINT LowerBack
	{
		OFFSET 0.000000 0.000000 0.000000
		CHANNELS 3 Zrotation Yrotation Xrotation
		JOINT Spine
		{
			OFFSET 0.028270 2.035590 -0.193380
			CHANNELS 3 Zrotation Yrotation Xrotation
			JOINT Spine1
			{
				OFFSET 0.056720 2.048850 -0.042750
				CHANNELS 3 Zrotation Yrotation Xrotation
				JOINT Neck
				{
					OFFSET 0.000000 0.000000 0.000000
					CHANNELS 3 Zrotation Yrotation Xrotation
					JOINT Neck1
					{
						OFFSET -0.054170 1.746240 0.172020
						CHANNELS 3 Zrotation Yrotation Xrotation
						JOINT Head
						{
							OFFSET 0.104070 1.761360 -0.123970
							CHANNELS 3 Zrotation Yrotation Xrotation
							End Site
							{
								OFFSET 0.000000 0.000000 0.000000
							}
						}
					}
				}
				JOINT LeftShoulder
				{
					OFFSET 0.000000 0.000000 0.000000
					CHANNELS 3 Zrotation Yrotation Xrotation
					JOINT LeftArm
					{
						OFFSET 3.362410 1.200890 -0.311210
						CHANNELS 3 Zrotation Yrotation Xrotation
						JOINT LeftForeArm
						{
							OFFSET 4.983000 -0.000000 -0.000000
							CHANNELS 3 Zrotation Yrotation Xrotation
							JOINT LeftHand
							{
								OFFSET 3.483560 -0.000000 -0.000000
								CHANNELS 3 Zrotation Yrotation Xrotation
								JOINT LeftFingerBase
								{
									OFFSET 0.000000 0.000000 0.000000
									CHANNELS 3 Zrotation Yrotation Xrotation
									JOINT LeftHandIndex1
									{
										OFFSET 0.715260 -0.000000 -0.000000
										CHANNELS 3 Zrotation Yrotation Xrotation
										End Site
										{
											OFFSET 0.000000 0.000000 0.000000
										}
									}
								}
								JOINT LThumb
								{
									OFFSET 0.000000 0.000000 0.000000
									CHANNELS 3 Zrotation Yrotation Xrotation
									End Site
									{
										OFFSET 0.000000 0.000000 0.000000
									}
								}
							}
						}
					}
				}
				JOINT RightShoulder
				{
					OFFSET 0.000000 0.000000 0.000000
					CHANNELS 3 Zrotation Yrotation Xrotation
					JOINT RightArm
					{
						OFFSET -3.136600 1.374050 -0.404650
						CHANNELS 3 Zrotation Yrotation Xrotation
						JOINT RightForeArm
						{
							OFFSET -5.241900 -0.000000 -0.000000
							CHANNELS 3 Zrotation Yrotation Xrotation
							JOINT RightHand
							{
								OFFSET -3.444170 -0.000000 -0.000000
								CHANNELS 3 Zrotation Yrotation Xrotation
								JOINT RightFingerBase
								{
									OFFSET 0.000000 0.000000 0.000000
									CHANNELS 3 Zrotation Yrotation Xrotation
									JOINT RightHandIndex1
									{
										OFFSET -0.622530 -0.000000 -0.000000
										CHANNELS 3 Zrotation Yrotation Xrotation
										End Site
										{
											OFFSET 0.000000 0.000000 0.000000
										}
									}
								}
								JOINT RThumb
								{
									OFFSET 0.000000 0.000000 0.000000
									CHANNELS 3 Zrotation Yrotation Xrotation
									End Site
									{
										OFFSET 0.000000 0.000000 0.000000
									}
								}
							}
						}
					}
				}
			}
		}
	}
}
MOTION
Frames: 6
Frame Time: 0.008333
14.345556 31.044738 50.729637 -177.155837 20.026937 162.226882 0.044414 -0.285165 -0.375113 -7.112797 16.482680 -59.319582 16.339323 19.638332 79.048975 -176.771039 5.909873 -36.309217 0.774800 5.620100 15.686100 0.062301 0.286150 -0.292831 16.822530 38.161948 -81.270567 -30.761539 -17.043101 123.106016 -1.490499 -4.934226 -25.428516 -0.185500 -2.774000 7.650100 -2.855499 -2.366209 35.662790 -0.594891 -1.443698 8.360813 1.407335 0.370345 -6.083549 -25.530317 4.989431 -5.983868 11.314912 8.919231 17.285114 8.405900 3.887600 4.680300 0.313936 -0.541732 0.538956 37.166131 -50.256359 -73.739079 20.307942 -31.272292 -5.990440 0.064905 -0.157672 18.606957 -0.966984 1.704116 -0.034500 -7.125000 0.000000 0.000000 -21.761100 31.274900 7.808600 -0.484680 0.598204 -0.352428 -142.743820 64.440138 177.702515 -30.183328 41.336604 -11.879235 0.112987 0.161153 15.948123 -20.610356 -19.636878 7.293900 7.125000 0.000000 0.000000 7.763000 -50.893500 -1.133100 
14.342741 31.047554 50.694951 -177.125720 19.930549 161.778844 0.045884 -0.281265 -0.371484 -7.013963 16.775813 -59.015785 16.486950 19.664388 79.484151 -176.774911 5.934996 -36.298379 0.687000 5.298900 14.763100 0.053470 0.286549 -0.295574 16.377497 38.169219 -82.959905 -30.784740 -17.033103 123.178448 -1.652119 -3.946743 -26.020707 -0.207600 -2.933700 8.094300 -2.883288 -2.407960 35.531283 -0.509699 -1.457970 8.491453 1.530907 0.368046 -5.887264 -25.632515 5.003887 -5.685879 11.265439 8.913236 17.431941 8.398600 3.873500 4.680800 0.309394 -0.541327 0.534763 36.327601 -50.601487 -73.006316 20.576864 -31.576362 -6.130392 0.063520 -0.158173 18.535805 -0.835299 1.862762 -0.032900 -7.125000 0.000000 0.000000 -21.697000 31.428900 7.695400 -0.479045 0.599434 -0.355201 -143.467898 64.870615 177.257430 -30.350071 41.455849 -11.982688 0.110964 0.158738 16.107164 -20.160456 -19.690711 7.139500 7.125000 0.000000 0.000000 8.222900 -50.870700 -1.196400 
14.339926 31.050369 50.661773 -177.351599 19.738924 161.293471 0.044796 -0.279216 -0.367354 -7.205104 16.937525 -58.712978 16.627411 19.688928 79.899693 -176.792751 5.761062 -36.136073 0.626700 5.065900 14.096500 0.046781 0.289154 -0.298978 15.834523 37.996394 -84.638454 -30.662656 -17.113702 122.754150 -1.615901 -4.279510 -25.949723 -0.108700 -2.125900 5.853600 -3.180648 -2.389162 35.423125 -0.503425 -1.492326 8.621546 1.704110 0.358051 -5.685315 -25.609081 5.041252 -5.505891 11.224250 8.932885 17.464431 8.372300 3.882900 4.660900 0.304774 -0.540495 0.531488 35.702059 -50.894449 -72.463303 20.828224 -31.860178 -6.262657 0.062308 -0.158145 18.538240 -0.698453 1.950005 -0.029300 -7.125000 0.000000 0.000000 -21.612800 31.516400 7.612200 -0.475331 0.599764 -0.356107 -143.915055 65.206998 176.974518 -30.492561 41.559873 -12.072341 0.109653 0.158104 16.115007 -19.872369 -19.874797 7.091100 7.125000 0.000000 0.000000 8.565800 -51.010800 -1.276500 
14.335603 31.049967 50.624775 -177.515146 19.575779 160.832250 0.044455 -0.277765 -0.364341 -7.309867 17.060630 -58.433280 16.770372 19.712753 80.325340 -176.848384 5.947656 -35.914819 0.482100 4.452400 12.353000 0.040839 0.291188 -0.302363 15.336883 37.810753 -86.157311 -30.473584 -17.233535 122.102303 -1.617956 -4.241175 -25.943274 -0.063700 -1.628400 4.479600 -3.353226 -2.417354 35.332584 -0.543679 -1.532108 8.800752 1.755763 0.354304 -5.436551 -25.556365 5.004304 -5.510726 11.234173 8.865888 17.398733 8.363000 3.855700 4.652100 0.299399 -0.538803 0.528572 35.213625 -51.146097 -72.062996 21.088195 -32.152192 -6.400496 0.059636 -0.155739 18.685500 -0.294122 1.859990 -0.013900 -7.125000 0.000000 0.000000 -21.284900 31.448400 7.518500 -0.472076 0.599204 -0.355101 -144.131759 65.456893 176.879483 -30.634508 41.667997 -12.163882 0.108531 0.159302 16.187364 -19.566711 -20.309631 7.117400 7.125000 0.000000 0.000000 9.013200 -51.406700 -1.432100 
14.334396 31.051072 50.586168 -177.324216 19.529738 160.512694 0.047542 -0.274732 -0.362922 -6.988920 17.259325 -58.199343 16.915682 19.734883 80.756143 -176.945550 6.568821 -35.649051 0.520100 4.622200 12.834000 0.033129 0.291530 -0.305279 15.302736 37.695695 -87.361726 -30.189475 -17.404131 121.135516 -1.632679 -4.071598 -25.953889 -0.048000 -1.414400 3.889900 -3.187011 -2.519975 35.167520 -0.498393 -1.545376 8.992448 1.726691 0.360723 -5.162439 -25.567379 5.038700 -5.537135 11.325253 8.907175 17.440732 8.398000 3.880600 4.652800 0.294489 -0.536619 0.523761 34.610219 -51.412843 -71.581101 21.396662 -32.495034 -6.565534 0.057208 -0.153858 18.729061 0.067671 1.827453 -0.001200 -7.125000 0.000000 0.000000 -21.001800 31.432300 7.414100 -0.467020 0.597555 -0.352863 -144.517067 65.667112 176.615096 -30.772166 41.769238 -12.251284 0.108031 0.159212 16.380559 -19.353686 -20.699839 7.160900 7.125000 0.000000 0.000000 9.359600 -51.769500 -1.571700 
14.333592 31.052178 50.548164 -177.249204 19.454129 160.113819 0.048267 -0.272183 -0.360149 -6.768953 17.392638 -57.882339 17.061512 19.756462 81.185439 -176.997805 6.730110 -35.434959 0.579200 4.873400 13.548000 0.027324 0.293292 -0.308440 15.226181 37.511791 -88.292817 -29.837830 -17.606125 119.950719 -1.664105 -3.508229 -25.870072 -0.021200 -0.939900 2.583400 -3.169564 -2.568587 35.051606 -0.439045 -1.551832 9.133479 1.791548 0.364947 -4.961617 -25.680213 5.032876 -5.364799 11.459411 8.854804 17.466057 8.455100 3.857600 4.627000 0.289646 -0.535374 0.518875 33.892405 -51.693498 -70.855796 21.658680 -32.782774 -6.706562 0.055655 -0.152797 18.569732 0.301405 1.839362 0.006900 -7.125000 0.000000 0.000000 -20.825800 31.452800 7.332900 -0.462452 0.597420 -0.351930 -145.070830 65.997057 176.305541 -30.920993 41.875452 -12.344724 0.107937 0.158064 16.218515 -19.336143 -20.887000 7.214300 7.125000 0.000000 0.000000 9.441900 -51.956500 -1.629200 
